<?xml version="1.0" encoding="UTF-8"?><svg id="Capa_2" xmlns="http://www.w3.org/2000/svg" viewBox="0 0 108.11 108.11"><defs><style>.cls-1{fill:#bc1373;}.cls-2{fill:#fff;}</style></defs><g id="Capa_1-2"><g><circle class="cls-1" cx="54.05" cy="54.05" r="54.05"/><g><path class="cls-2" d="M49.74,49.26h-10.57v13.62c0,4.37,.48,7.57,5.68,7.57,1.28,0,3.84-.17,4.88-1.18v10.51c-2.64,1.01-5.6,1.26-8.41,1.26-8.01,0-14.17-3.45-14.17-12.36v-19.42h-7.69v-10.09h7.69v-12.11h12.01v12.11h10.57v10.09Z"/><path class="cls-2" d="M81.07,53.96c-1.15-1.67-3.29-2.94-5.65-2.94-5.73,0-9.17,3.97-9.17,9.77s3.44,9.77,9.17,9.77c2.52,0,4.35-1.35,5.65-2.94l7.56,8.26c-3.59,3.81-8.86,5.16-13.22,5.16-11.46,0-20.63-7.94-20.63-20.25s9.17-20.25,20.63-20.25c4.35,0,9.63,1.35,13.22,5.16l-7.56,8.26Z"/></g></g></g></svg>