<?xml version="1.0" encoding="UTF-8"?><svg id="Capa_2" xmlns="http://www.w3.org/2000/svg" viewBox="0 0 500 113.97"><defs><style>.cls-1{fill:#bc1373;}.cls-2{fill:#fff;}.cls-3{fill:#510839;}</style></defs><g id="Capa_1-2"><g><g><circle class="cls-1" cx="54.05" cy="54.05" r="54.05"/><g><path class="cls-2" d="M49.74,49.26h-10.57v13.62c0,4.37,.48,7.57,5.68,7.57,1.28,0,3.84-.17,4.88-1.18v10.51c-2.64,1.01-5.6,1.26-8.41,1.26-8.01,0-14.17-3.45-14.17-12.36v-19.42h-7.69v-10.09h7.69v-12.11h12.01v12.11h10.57v10.09Z"/><path class="cls-2" d="M81.07,53.96c-1.15-1.67-3.29-2.94-5.65-2.94-5.73,0-9.17,3.97-9.17,9.77s3.44,9.77,9.17,9.77c2.52,0,4.35-1.35,5.65-2.94l7.56,8.26c-3.59,3.81-8.86,5.16-13.22,5.16-11.46,0-20.63-7.94-20.63-20.25s9.17-20.25,20.63-20.25c4.35,0,9.63,1.35,13.22,5.16l-7.56,8.26Z"/></g></g><g><path class="cls-3" d="M141.18,40.61c10.86,0,19.55,7.92,19.55,20.2s-8.69,20.2-19.55,20.2-19.55-7.92-19.55-20.2,8.69-20.2,19.55-20.2Zm0,29.94c5.43,0,8.69-3.96,8.69-9.74s-3.26-9.74-8.69-9.74-8.69,3.96-8.69,9.74,3.26,9.74,8.69,9.74Z"/><path class="cls-3" d="M167.11,42.51h10.43v5.23h.14c1.45-3.01,5-6.18,10.28-6.18,4.93,0,8.98,2.22,10.87,6.89,2.53-4.91,5.94-6.89,11.15-6.89,9.56,0,12.46,7.37,12.46,16.71v22.73h-10.86v-22.42c0-3.57-1.23-6.57-4.78-6.57-5,0-6.59,3.88-6.59,8.63v20.36h-10.87v-20.36c0-2.85,.15-8.63-4.85-8.63-5.65,0-6.52,4.83-6.52,9.82v19.17h-10.86V42.51Z"/><path class="cls-3" d="M231.14,41.56h10v5.07h.14c1.67-2.77,5.87-6.02,10.79-6.02,10.43,0,17.31,8.24,17.31,19.88,0,10.69-6.08,20.52-16.08,20.52-4.49,0-8.69-1.35-11.15-5.07h-.15v22.18h-10.86V41.56Zm18.69,28.99c5.43,0,8.69-3.96,8.69-9.74s-3.26-9.74-8.69-9.74-8.69,3.96-8.69,9.74,3.26,9.74,8.69,9.74Z"/><path class="cls-3" d="M275.76,42.51h10.86v6.18h.15c2.32-4.67,5.36-7.13,10.14-7.13,1.23,0,2.61,.08,3.62,.4v10.85c-1.52-.48-3.04-.79-4.64-.79-8.26,0-9.27,5.23-9.27,12.91v16.08h-10.86V42.51Z"/><path class="cls-3" d="M327.33,75.22h-.15c-2.39,4.12-6.74,5.78-11.15,5.78-6.59,0-12.53-4.12-12.53-11.88,0-13.31,14.78-13.54,23.83-13.54,0-4.2-3.19-6.89-6.95-6.89-3.55,0-6.52,1.74-8.84,4.59l-5.79-6.5c3.98-4.12,9.78-6.18,15.5-6.18,12.68,0,16.08,7.05,16.08,19.88v19.57h-9.99v-4.83Zm-2.68-12.04c-3.33,0-10.72,.32-10.72,5.54,0,2.85,2.75,4.2,5.14,4.2,4.27,0,8.26-2.46,8.26-7.21v-2.53h-2.68Z"/><path class="cls-3" d="M351.01,66.43c3.69,0,6.66,3.25,6.66,7.29s-2.97,7.29-6.66,7.29-6.66-3.25-6.66-7.29,2.97-7.29,6.66-7.29Z"/><path class="cls-3" d="M389.4,53.99c-1.09-1.66-3.11-2.93-5.36-2.93-5.43,0-8.69,3.96-8.69,9.74s3.26,9.74,8.69,9.74c2.39,0,4.13-1.35,5.36-2.93l7.17,8.24c-3.4,3.8-8.4,5.15-12.53,5.15-10.86,0-19.55-7.92-19.55-20.2s8.69-20.2,19.55-20.2c4.13,0,9.13,1.35,12.53,5.15l-7.17,8.24Z"/><path class="cls-3" d="M418.73,40.61c10.86,0,19.55,7.92,19.55,20.2s-8.69,20.2-19.55,20.2-19.55-7.92-19.55-20.2,8.69-20.2,19.55-20.2Zm0,29.94c5.43,0,8.69-3.96,8.69-9.74s-3.26-9.74-8.69-9.74-8.69,3.96-8.69,9.74,3.26,9.74,8.69,9.74Z"/><path class="cls-3" d="M444.67,42.51h10.43v5.23h.14c1.45-3.01,5-6.18,10.28-6.18,4.93,0,8.98,2.22,10.87,6.89,2.53-4.91,5.94-6.89,11.15-6.89,9.56,0,12.46,7.37,12.46,16.71v22.73h-10.86v-22.42c0-3.57-1.23-6.57-4.78-6.57-5,0-6.59,3.88-6.59,8.63v20.36h-10.87v-20.36c0-2.85,.15-8.63-4.85-8.63-5.65,0-6.52,4.83-6.52,9.82v19.17h-10.86V42.51Z"/></g><g><path class="cls-1" d="M284.9,98.36h-3.19v4.17c0,1.34,.14,2.32,1.72,2.32,.39,0,1.16-.05,1.47-.36v3.22c-.8,.31-1.69,.39-2.54,.39-2.42,0-4.28-1.06-4.28-3.79v-5.95h-2.32v-3.09h2.32v-3.71h3.63v3.71h3.19v3.09Z"/><path class="cls-1" d="M298.05,107.79h-3.48v-1.7h-.05c-.48,.98-1.67,2.01-3.43,2.01-3.68,0-4.35-2.58-4.35-5.93v-6.9h3.63v6.13c0,1.44,.02,3.3,1.89,3.3s2.18-1.57,2.18-3.19v-6.23h3.63v12.52Z"/><path class="cls-1" d="M307.77,95.58h3.48v1.7h.05c.48-.98,1.67-2.01,3.43-2.01,1.64,0,3,.72,3.63,2.24,.85-1.6,1.98-2.24,3.72-2.24,3.19,0,4.16,2.4,4.16,5.44v7.39h-3.63v-7.29c0-1.16-.41-2.14-1.6-2.14-1.67,0-2.2,1.26-2.2,2.81v6.62h-3.63v-6.62c0-.93,.05-2.81-1.62-2.81-1.89,0-2.18,1.57-2.18,3.19v6.23h-3.63v-12.52Z"/><path class="cls-1" d="M339.93,105.63c-1.16,1.57-3.07,2.47-4.96,2.47-3.63,0-6.53-2.58-6.53-6.57s2.9-6.57,6.53-6.57c3.39,0,5.51,2.58,5.51,6.57v1.21h-8.41c.29,1.47,1.33,2.42,2.73,2.42,1.18,0,1.98-.64,2.59-1.52l2.54,1.98Zm-3.07-5.51c.02-1.29-.92-2.37-2.22-2.37-1.6,0-2.47,1.16-2.56,2.37h4.79Z"/><path class="cls-1" d="M346.36,108.72c0,3.19-1.04,5.26-4.35,5.26-.56,0-1.16-.03-1.69-.21l.19-3.43c.29,.15,.63,.23,.94,.23,1.26,0,1.28-1.57,1.28-2.53v-12.78h3.63v13.45Zm-1.81-19.63c1.16,0,2.1,1,2.1,2.24s-.94,2.24-2.1,2.24-2.1-1-2.1-2.24,.94-2.24,2.1-2.24Z"/><path class="cls-1" d="M355.07,94.96c3.63,0,6.53,2.58,6.53,6.57s-2.9,6.57-6.53,6.57-6.53-2.58-6.53-6.57,2.9-6.57,6.53-6.57Zm0,9.74c1.81,0,2.9-1.29,2.9-3.17s-1.09-3.17-2.9-3.17-2.9,1.29-2.9,3.17,1.09,3.17,2.9,3.17Z"/><path class="cls-1" d="M363.72,95.58h3.63v2.01h.05c.77-1.52,1.79-2.32,3.38-2.32,.41,0,.87,.03,1.21,.13v3.53c-.51-.15-1.02-.26-1.55-.26-2.76,0-3.09,1.7-3.09,4.2v5.23h-3.63v-12.52Z"/><path class="cls-1" d="M381.06,95.27h3.34v1.65h.05c.56-.9,1.96-1.96,3.6-1.96,3.48,0,5.78,2.68,5.78,6.47,0,3.48-2.03,6.67-5.37,6.67-1.5,0-2.9-.44-3.72-1.65h-.05v7.21h-3.63v-18.39Zm6.24,9.43c1.81,0,2.9-1.29,2.9-3.17s-1.09-3.17-2.9-3.17-2.9,1.29-2.9,3.17,1.09,3.17,2.9,3.17Z"/><path class="cls-1" d="M395.95,95.58h3.63v2.01h.05c.77-1.52,1.79-2.32,3.38-2.32,.41,0,.87,.03,1.21,.13v3.53c-.51-.15-1.02-.26-1.55-.26-2.76,0-3.09,1.7-3.09,4.2v5.23h-3.63v-12.52Z"/><path class="cls-1" d="M411.89,94.96c3.63,0,6.53,2.58,6.53,6.57s-2.9,6.57-6.53,6.57-6.53-2.58-6.53-6.57,2.9-6.57,6.53-6.57Zm0,9.74c1.81,0,2.9-1.29,2.9-3.17s-1.09-3.17-2.9-3.17-2.9,1.29-2.9,3.17,1.09,3.17,2.9,3.17Z"/><path class="cls-1" d="M419.31,95.58h3.92l2.97,8.5h.05l2.76-8.5h3.65l-4.64,12.52h-3.84l-4.86-12.52Z"/><path class="cls-1" d="M445.11,105.63c-1.16,1.57-3.07,2.47-4.96,2.47-3.63,0-6.53-2.58-6.53-6.57s2.9-6.57,6.53-6.57c3.39,0,5.51,2.58,5.51,6.57v1.21h-8.41c.29,1.47,1.33,2.42,2.73,2.42,1.18,0,1.98-.64,2.59-1.52l2.54,1.98Zm-3.07-5.51c.02-1.29-.92-2.37-2.22-2.37-1.6,0-2.47,1.16-2.56,2.37h4.79Z"/><path class="cls-1" d="M458.99,105.63c-1.16,1.57-3.07,2.47-4.96,2.47-3.63,0-6.53-2.58-6.53-6.57s2.9-6.57,6.53-6.57c3.39,0,5.51,2.58,5.51,6.57v1.21h-8.41c.29,1.47,1.33,2.42,2.73,2.42,1.18,0,1.98-.64,2.59-1.52l2.54,1.98Zm-3.07-5.51c.02-1.29-.92-2.37-2.22-2.37-1.6,0-2.47,1.16-2.56,2.37h4.79Z"/><path class="cls-1" d="M474.08,107.79h-3.34v-1.65h-.05c-.56,.9-1.96,1.96-3.6,1.96-3.48,0-5.78-2.68-5.78-6.47,0-3.48,2.03-6.67,5.37-6.67,1.5,0,2.9,.44,3.72,1.65h.05v-8.3h3.63v19.48Zm-6.24-9.43c-1.81,0-2.9,1.29-2.9,3.17s1.09,3.17,2.9,3.17,2.9-1.29,2.9-3.17-1.09-3.17-2.9-3.17Z"/><path class="cls-1" d="M483.07,94.96c3.63,0,6.53,2.58,6.53,6.57s-2.9,6.57-6.53,6.57-6.53-2.58-6.53-6.57,2.9-6.57,6.53-6.57Zm0,9.74c1.81,0,2.9-1.29,2.9-3.17s-1.09-3.17-2.9-3.17-2.9,1.29-2.9,3.17,1.09,3.17,2.9,3.17Z"/><path class="cls-1" d="M491.73,95.58h3.63v2.01h.05c.77-1.52,1.79-2.32,3.38-2.32,.41,0,.87,.03,1.21,.13v3.53c-.51-.15-1.02-.26-1.55-.26-2.76,0-3.09,1.7-3.09,4.2v5.23h-3.63v-12.52Z"/></g></g></g></svg>